<svg width="289" height="355" viewBox="0 0 289 355" fill="none" xmlns="http://www.w3.org/2000/svg">
<path d="M155.274 175.348C161.262 182.833 167.911 191.049 172.576 196.793C177.763 181.197 170.835 159.404 163.107 143.112C161.262 153.243 158.686 163.965 155.274 175.348Z" fill="#DD0000"/>
<path d="M118.791 117.63C111.098 125.01 104.205 138.796 109.392 160.344C114.057 159.961 120.671 159.439 126.659 158.882C123.247 143.565 120.671 129.884 118.791 117.63Z" fill="#DD0000"/>
<path opacity="0.2" d="M135.362 194.391C92.334 29.1725 127.738 15.1432 141.106 9.50369C154.474 30.5998 189.843 85.4636 146.78 200.97L135.362 194.391Z" fill="url(#paint0_linear)"/>
<path opacity="0.1" d="M148.033 184.887C105.006 19.7036 140.375 5.63955 153.777 0C167.145 21.0961 202.514 75.9599 159.452 191.466L148.033 184.887Z" fill="url(#paint1_linear)"/>
<path opacity="0.15" d="M146.78 200.97C189.843 85.4636 154.474 30.5998 141.106 9.50369V197.698L146.78 200.97Z" fill="url(#paint2_linear)"/>
<path opacity="0.1" d="M153.917 67.6747C153.917 77.7353 147.999 82.4698 140.688 78.2575C133.378 74.0453 127.46 62.4529 127.46 52.3922C127.46 42.3315 133.378 37.597 140.688 41.8093C147.999 46.0216 153.917 57.614 153.917 67.6747Z" fill="white"/>
<path opacity="0.1" d="M151.306 238.358C148.277 233.415 146.815 227.149 145.527 221.648C144.03 215.313 142.777 209.917 139.644 208.559C136.058 206.992 134.457 210.961 132.194 216.461C130.871 219.699 129.305 223.528 127.007 227.044C124.535 224.433 121.924 222.275 119.174 220.708C107.652 214.059 98.0434 219.803 95.7806 233.519C94.2141 232.336 92.6475 231.257 91.0462 230.317C72.561 219.664 57.5918 231.744 57.5918 257.366C57.5918 282.952 72.561 312.334 91.0114 322.986C108.94 333.325 123.595 322.22 124.431 298.165C127.808 304.431 132.298 309.688 137.277 312.543C138.565 313.274 139.818 313.831 141.001 314.179C148.173 329.949 158.86 343.525 170.801 350.418C192.384 362.881 209.895 348.817 209.929 319.018C209.929 289.219 192.419 254.929 170.835 242.466C163.699 238.358 157.05 237.105 151.306 238.358Z" fill="url(#paint3_linear)"/>
<path opacity="0.3" d="M186.083 124.383L280.319 178.795L280.354 227.915L194.438 178.307L186.118 181.023L186.083 124.383Z" fill="url(#paint4_linear)"/>
<path d="M252.922 187.428V174.095L288.5 194.634V207.967L252.922 187.428Z" fill="#DD0000"/>
<path opacity="0.1" d="M210.312 150.318L230.956 162.224V166.541L210.312 154.635V150.318Z" fill="white"/>
<path opacity="0.1" d="M210.347 158.952L247.596 180.466V184.782L210.347 163.269V158.952Z" fill="white"/>
<path opacity="0.15" d="M210.347 167.585L258.562 195.435V199.752L210.347 171.902V167.585Z" fill="white"/>
<path d="M205.23 151.885C205.23 155.923 202.828 157.838 199.869 156.132C196.91 154.426 194.508 149.761 194.508 145.723C194.508 141.685 196.91 139.77 199.869 141.476C202.862 143.182 205.23 147.847 205.23 151.885Z" fill="#DD0000"/>
<path opacity="0.3" d="M104.797 55.0031L10.5605 0.626633L10.5953 49.7464L96.5114 99.3188L104.832 111.642L104.797 55.0031Z" fill="url(#paint5_linear)"/>
<path d="M0.5 19.7733V6.44023L36.0779 26.9793V40.3124L0.5 19.7733Z" fill="#DD0000"/>
<path opacity="0.15" d="M80.5678 52.9839L59.9243 41.0782V45.3949L80.5678 57.3006V52.9839Z" fill="white"/>
<path opacity="0.15" d="M80.5678 61.6173L40.7776 38.6414V42.9581L80.5678 65.934V61.6173Z" fill="white"/>
<path opacity="0.15" d="M80.5677 70.2507L32.353 42.4011V46.7178L80.5677 74.5674V70.2507Z" fill="white"/>
<path d="M85.6501 60.3989C85.6501 64.4371 88.0522 69.1019 91.0112 70.8077C93.9702 72.5135 96.3723 70.5989 96.3723 66.5607C96.3723 62.5225 93.9702 57.8576 91.0112 56.1519C88.0522 54.4809 85.6501 56.3607 85.6501 60.3989Z" fill="#DD0000"/>
<path opacity="0.2" d="M92.2644 107.43L35.9733 74.9503V104.262L92.2644 136.742V107.43Z" fill="url(#paint6_linear)"/>
<path opacity="0.15" d="M50.3856 90.3025L69.6715 101.442V104.958L50.3856 93.8185V90.3025Z" fill="white"/>
<path opacity="0.15" d="M50.3856 97.3693L86.4509 118.187V121.738L50.3856 100.92V97.3693Z" fill="white"/>
<path d="M47.4264 91.3468C47.4264 93.7489 45.9991 94.8977 44.2237 93.8881C42.4483 92.8786 41.021 90.0936 41.021 87.6568C41.021 85.2547 42.4483 84.1059 44.2237 85.1155C45.9643 86.1599 47.4264 88.9448 47.4264 91.3468Z" fill="#DD0000"/>
<path opacity="0.2" d="M259.432 129.57L203.141 97.0908V126.403L259.432 158.917V129.57Z" fill="url(#paint7_linear)"/>
<path opacity="0.15" d="M217.553 112.478L236.839 123.618V127.134L217.553 115.994V112.478Z" fill="white"/>
<path opacity="0.15" d="M217.588 119.545L253.653 140.362V143.913L217.588 123.095V119.545Z" fill="white"/>
<path d="M214.594 113.522C214.594 115.924 213.167 117.073 211.391 116.063C209.616 115.054 208.189 112.269 208.189 109.832C208.189 107.43 209.616 106.281 211.391 107.291C213.167 108.335 214.594 111.12 214.594 113.522Z" fill="#DD0000"/>
<defs>
<linearGradient id="paint0_linear" x1="191.268" y1="15.3614" x2="83.0542" y2="202.843" gradientUnits="userSpaceOnUse">
<stop stop-color="white"/>
<stop offset="1" stop-color="white" stop-opacity="0"/>
</linearGradient>
<linearGradient id="paint1_linear" x1="203.936" y1="5.86037" x2="95.7227" y2="193.342" gradientUnits="userSpaceOnUse">
<stop stop-color="white"/>
<stop offset="1" stop-color="white" stop-opacity="0"/>
</linearGradient>
<linearGradient id="paint2_linear" x1="171.088" y1="56.2431" x2="87.552" y2="206.972" gradientUnits="userSpaceOnUse">
<stop stop-color="white" stop-opacity="0"/>
<stop offset="1" stop-color="white"/>
</linearGradient>
<linearGradient id="paint3_linear" x1="163.23" y1="238.086" x2="116.49" y2="319.064" gradientUnits="userSpaceOnUse">
<stop stop-color="white"/>
<stop offset="1" stop-color="white" stop-opacity="0"/>
</linearGradient>
<linearGradient id="paint4_linear" x1="226.573" y1="125.974" x2="238.757" y2="224.794" gradientUnits="userSpaceOnUse">
<stop stop-color="white"/>
<stop offset="1" stop-color="white" stop-opacity="0"/>
</linearGradient>
<linearGradient id="paint5_linear" x1="84.2459" y1="35.3344" x2="35.5849" y2="73.4345" gradientUnits="userSpaceOnUse">
<stop stop-color="white"/>
<stop offset="1" stop-color="white" stop-opacity="0"/>
</linearGradient>
<linearGradient id="paint6_linear" x1="70.4613" y1="94.8373" x2="57.7669" y2="116.831" gradientUnits="userSpaceOnUse">
<stop stop-color="white"/>
<stop offset="1" stop-color="white" stop-opacity="0"/>
</linearGradient>
<linearGradient id="paint7_linear" x1="237.65" y1="117.005" x2="224.956" y2="138.998" gradientUnits="userSpaceOnUse">
<stop stop-color="white"/>
<stop offset="1" stop-color="white" stop-opacity="0"/>
</linearGradient>
</defs>
</svg>
