<svg width="289" height="260" viewBox="0 0 289 260" fill="none" xmlns="http://www.w3.org/2000/svg">
<path opacity="0.07" d="M191.708 39.5678C192.5 40.0203 193.216 41.1138 193.329 42.0941L210.938 187.753C211.089 188.998 210.335 189.563 209.317 188.998L113.505 133.683C112.525 133.117 111.733 131.646 111.884 130.591L129.531 5.29289C129.644 4.42565 130.322 4.16171 131.152 4.61418L191.708 39.5678Z" fill="url(#paint0_linear)"/>
<path opacity="0.4" d="M166.935 41.6417C166.935 26.3329 157.961 8.72415 146.913 2.3141C135.865 -4.05825 126.891 3.18134 126.891 18.4901L131.227 20.9787V20.941C131.227 8.91268 138.278 3.21904 146.951 8.23397C155.623 13.2489 162.674 27.0871 162.674 39.1154V39.1531L166.935 41.6417Z" fill="url(#paint1_linear)"/>
<path opacity="0.4" d="M178.813 50.1256C178.7 49.1452 178.021 48.0517 177.191 47.5992L116.597 12.6079C115.806 12.1554 115.089 12.4193 114.976 13.2866L97.3296 138.584C97.1787 139.64 97.9328 141.111 98.9509 141.676L194.8 196.991C195.78 197.557 196.572 196.991 196.421 195.747L178.813 50.1256Z" fill="url(#paint2_linear)"/>
<path opacity="0.3" d="M124.666 69.2803L12.4528 4.50108L12.4905 62.9834L114.787 122.031L124.704 136.699L124.666 69.2803Z" fill="url(#paint3_linear)"/>
<path d="M0.5 27.3133V11.439L42.8441 35.8726V51.7469L0.5 27.3133Z" fill="#DD0000"/>
<path opacity="0.15" d="M95.8211 66.8671L71.2367 52.6895V57.8176L95.8211 71.9951V66.8671Z" fill="white"/>
<path opacity="0.15" d="M95.8211 77.1233L48.4244 49.7863V54.9143L95.8211 82.289V77.1233Z" fill="white"/>
<path opacity="0.15" d="M95.8213 87.417L38.3947 54.2733V59.4013L95.8213 92.5451V87.417Z" fill="white"/>
<path d="M101.854 75.6904C101.854 80.5168 104.72 86.0596 108.227 88.0957C111.733 90.1318 114.599 87.8695 114.599 83.0431C114.599 78.2167 111.733 72.6739 108.227 70.6377C104.72 68.6016 101.854 70.864 101.854 75.6904Z" fill="#DD0000"/>
<path opacity="0.3" d="M137.751 136.36L249.927 201.101L249.964 259.583L147.667 200.536L137.788 203.778L137.751 136.36Z" fill="url(#paint4_linear)"/>
<path d="M217.311 211.433V195.558L259.655 219.992V235.866L217.311 211.433Z" fill="#DD0000"/>
<path opacity="0.15" d="M166.596 167.241L191.18 181.419V186.547L166.596 172.369V167.241Z" fill="white"/>
<path opacity="0.15" d="M166.596 177.535L210.976 203.137V208.265L166.596 182.663V177.535Z" fill="white"/>
<path opacity="0.15" d="M166.596 187.791L224.022 220.935V226.063L166.596 192.919V187.791Z" fill="white"/>
<path d="M160.525 169.089C160.525 173.915 157.659 176.177 154.153 174.141C150.646 172.105 147.78 166.562 147.78 161.736C147.78 156.91 150.646 154.647 154.153 156.683C157.697 158.719 160.525 164.3 160.525 169.089Z" fill="#DD0000"/>
<path opacity="0.2" d="M20.1072 121.051L96.9525 165.393V124.897L20.1072 80.5544V121.051Z" fill="url(#paint5_linear)"/>
<path d="M81.3043 128.441C81.3043 125.085 83.2651 123.539 85.6783 124.897C88.0915 126.292 90.0522 130.138 90.0522 133.456C90.0522 136.812 88.0915 138.358 85.6783 137.001C83.2651 135.605 81.3043 131.797 81.3043 128.441Z" fill="#DD0000"/>
<path opacity="0.15" d="M77.3829 139.188L27.9878 110.682V105.554L77.3829 134.06V139.188Z" fill="white"/>
<path opacity="0.15" d="M77.2321 128.668L54.7592 115.697V110.569L77.2321 123.54V128.668Z" fill="white"/>
<path opacity="0.2" d="M288.462 175.046L211.655 130.704V171.2L288.5 215.543L288.462 175.046Z" fill="url(#paint6_linear)"/>
<path opacity="0.15" d="M231.186 152.008L250.04 162.905V168.033L231.186 157.136V152.008Z" fill="white"/>
<path opacity="0.15" d="M231.337 162.151L271.871 185.566V190.694L231.337 167.279V162.151Z" fill="white"/>
<path d="M227.265 152.724C227.265 156.08 225.304 157.626 222.891 156.268C220.478 154.873 218.517 151.027 218.517 147.709C218.517 144.353 220.478 142.807 222.891 144.165C225.304 145.522 227.265 149.368 227.265 152.724Z" fill="#DD0000"/>
<path opacity="0.2" d="M92.39 221.199C66.9006 188.47 85.3389 176.705 92.39 195.86C99.4787 184.887 117.917 217.918 92.39 221.199Z" fill="url(#paint7_linear)"/>
<path opacity="0.2" d="M234.58 68.9032C236.842 70.1852 238.652 73.3526 238.652 75.9543V87.4547L246.269 91.8286C248.531 93.1106 250.341 96.2779 250.341 98.9174C250.341 101.519 248.531 102.575 246.269 101.293L238.652 96.9189V108.419C238.652 111.021 236.842 112.077 234.58 110.795C232.318 109.513 230.508 106.346 230.508 103.706V92.2057L222.891 87.794C220.629 86.512 218.819 83.3447 218.819 80.743C218.819 78.1412 220.629 77.0855 222.891 78.3675L230.508 82.7414V71.241C230.508 68.6393 232.318 67.5835 234.58 68.9032Z" fill="url(#paint8_linear)"/>
<defs>
<linearGradient id="paint0_linear" x1="214.951" y1="78.6003" x2="115.592" y2="119.051" gradientUnits="userSpaceOnUse">
<stop stop-color="white"/>
<stop offset="1" stop-color="white" stop-opacity="0"/>
</linearGradient>
<linearGradient id="paint1_linear" x1="156.461" y1="15.9517" x2="92.0995" y2="74.2702" gradientUnits="userSpaceOnUse">
<stop stop-color="white"/>
<stop offset="1" stop-color="white" stop-opacity="0"/>
</linearGradient>
<linearGradient id="paint2_linear" x1="200.325" y1="64.3606" x2="135.963" y2="122.679" gradientUnits="userSpaceOnUse">
<stop stop-color="white"/>
<stop offset="1" stop-color="white" stop-opacity="0"/>
</linearGradient>
<linearGradient id="paint3_linear" x1="100.191" y1="45.8484" x2="42.2552" y2="91.2105" gradientUnits="userSpaceOnUse">
<stop stop-color="white"/>
<stop offset="1" stop-color="white" stop-opacity="0"/>
</linearGradient>
<linearGradient id="paint4_linear" x1="185.943" y1="138.244" x2="200.448" y2="255.899" gradientUnits="userSpaceOnUse">
<stop stop-color="white"/>
<stop offset="1" stop-color="white" stop-opacity="0"/>
</linearGradient>
<linearGradient id="paint5_linear" x1="49.7606" y1="138.167" x2="67.2991" y2="107.781" gradientUnits="userSpaceOnUse">
<stop stop-color="white" stop-opacity="0"/>
<stop offset="1" stop-color="white"/>
</linearGradient>
<linearGradient id="paint6_linear" x1="258.841" y1="157.94" x2="241.308" y2="188.316" gradientUnits="userSpaceOnUse">
<stop stop-color="white"/>
<stop offset="1" stop-color="white" stop-opacity="0"/>
</linearGradient>
<linearGradient id="paint7_linear" x1="97.7591" y1="197.1" x2="78.9671" y2="213.37" gradientUnits="userSpaceOnUse">
<stop stop-color="white"/>
<stop offset="1" stop-color="white" stop-opacity="0"/>
</linearGradient>
<linearGradient id="paint8_linear" x1="242.47" y1="83.6052" x2="222.728" y2="99.1854" gradientUnits="userSpaceOnUse">
<stop stop-color="white"/>
<stop offset="1" stop-color="white" stop-opacity="0"/>
</linearGradient>
</defs>
</svg>
