<svg width="289" height="437" viewBox="0 0 289 437" fill="none" xmlns="http://www.w3.org/2000/svg">
<path opacity="0.4" d="M164.513 124.844C160.98 122.807 158.445 122.766 156.907 124.678C155.327 126.59 154.579 129.832 154.579 134.362V158.885C154.579 163.54 154.164 167.406 153.291 170.482C152.418 173.682 150.963 175.927 148.968 177.257C147.015 178.628 144.354 178.961 140.988 178.337C137.704 177.755 133.589 176.01 128.685 173.183L126.357 171.812V152.484L129.308 154.188C132.841 156.225 135.169 156.474 136.333 155.02C137.579 153.565 138.203 150.572 138.203 146.042V124.428C138.203 118.775 138.743 114.328 139.865 111.086C140.946 107.802 143.149 105.724 146.433 104.81C143.149 100.113 140.946 95.4577 139.865 90.9272C138.785 86.3967 138.244 81.3258 138.244 75.6731V54.0596C138.244 49.529 137.621 45.7882 136.374 42.9203C135.21 40.0939 132.841 37.6416 129.35 35.6049L126.399 33.9008V14.5733L128.726 15.945C133.631 18.7713 137.746 21.8055 141.029 25.006C144.396 28.248 147.056 31.6563 149.01 35.314C151.046 38.9717 152.501 42.8787 153.332 47.0767C154.205 51.15 154.621 55.5143 154.621 60.1695V84.6925C154.621 89.2231 155.411 93.3795 156.948 97.0787C158.528 100.778 161.063 103.687 164.555 105.683L164.513 124.844Z" fill="url(#paint0_linear)"/>
<path opacity="0.4" d="M75.482 53.8101C79.015 55.8468 81.5504 55.8883 83.0883 53.9764C84.6677 52.0644 85.4159 48.8224 85.4159 44.2919V19.7688C85.4159 15.1136 85.8315 11.2481 86.7044 8.17235C87.5772 4.97189 88.9904 2.72741 90.944 1.35578C92.9806 0.025718 95.6407 -0.306797 98.9243 0.275105C102.291 0.898571 106.447 2.64428 111.352 5.51222L113.68 6.88385V26.2113L110.729 24.5072C107.196 22.4705 104.826 22.1796 103.58 23.6343C102.416 25.1306 101.834 28.1233 101.834 32.6954V54.3089C101.834 59.9201 101.294 64.409 100.171 67.6511C99.0906 70.9347 96.8877 73.0129 93.6041 73.9273C96.8877 78.6241 99.0906 83.2793 100.171 87.8098C101.252 92.3403 101.792 97.4112 101.792 103.064V124.677C101.792 129.208 102.374 132.907 103.538 135.775C104.785 138.643 107.154 141.137 110.687 143.132L113.638 144.836V164.164L111.311 162.792C106.406 159.966 102.249 156.89 98.8828 153.689C95.5992 150.489 92.9391 147.081 90.9024 143.381C88.9489 139.765 87.5357 135.858 86.7044 131.702C85.8315 127.629 85.4159 123.264 85.4159 118.609V94.086C85.4159 89.5555 84.6262 85.3991 83.0883 81.6998C81.5088 78.0006 78.9734 75.0911 75.482 73.096V53.8101Z" fill="url(#paint1_linear)"/>
<path opacity="0.15" d="M176.525 5.34604L264.268 56.0131L264.226 266.371L176.484 215.745L176.525 5.34604Z" fill="url(#paint2_linear)"/>
<path d="M160.024 32.9032L229.852 73.1791V92.5066L160.024 52.2306V32.9032Z" fill="#DD0000"/>
<path opacity="0.2" d="M187.956 122.392L254.126 160.589V219.07L187.956 180.873V122.392Z" fill="url(#paint3_linear)"/>
<path opacity="0.15" d="M187.29 77.5434L254.458 116.323V122.932L187.29 84.1521V77.5434Z" fill="white"/>
<path opacity="0.15" d="M187.29 90.844L245.356 124.345V130.954L187.29 97.4527V90.844Z" fill="white"/>
<path opacity="0.15" d="M187.29 103.978L236.586 132.408V139.017L187.29 110.587V103.978Z" fill="white"/>
<path opacity="0.2" d="M176.525 5.34604L264.268 56.0131V84.1938L176.484 33.5683L176.525 5.34604Z" fill="url(#paint4_linear)"/>
<path opacity="0.2" d="M198.43 32.2797C198.43 36.5609 195.936 38.556 192.86 36.7687C189.784 34.9814 187.29 30.1184 187.29 25.8373C187.29 21.5561 189.784 19.561 192.86 21.3483C195.936 23.1356 198.43 28.0402 198.43 32.2797Z" fill="white"/>
<path opacity="0.15" d="M18.4143 69.7709L288.5 225.638L288.458 436.12L18.3727 280.253L18.4143 69.7709Z" fill="url(#paint5_linear)"/>
<path d="M0.5 121.643L70.2867 161.919V181.247L0.5 141.012V121.643Z" fill="#DD0000"/>
<path opacity="0.15" d="M36.6193 174.763L191.571 264.209V270.818L36.6193 181.371V174.763Z" fill="white"/>
<path opacity="0.15" d="M36.6193 188.063L170.291 265.207V271.816L36.6193 194.672V188.063Z" fill="white"/>
<path opacity="0.15" d="M36.6193 201.239L150.381 266.911V273.52L36.6193 207.848V201.239Z" fill="white"/>
<path opacity="0.2" d="M141.196 285.033L277.444 363.673V422.154L141.196 343.514V285.033Z" fill="url(#paint6_linear)"/>
<path opacity="0.15" d="M151.462 302.532L171.995 314.378V333.705L151.462 321.859V302.532Z" fill="white"/>
<path opacity="0.15" d="M176.609 317.994L197.141 329.84V349.167L176.609 337.321V317.994Z" fill="white"/>
<path opacity="0.15" d="M201.88 332.333L222.413 344.179V363.507L201.88 351.661V332.333Z" fill="white"/>
<path opacity="0.15" d="M227.151 347.588L247.684 359.434V378.761L227.151 366.915V347.588Z" fill="white"/>
<path opacity="0.2" d="M11.265 207.806L124.694 273.27V331.752L11.265 266.246V207.806Z" fill="url(#paint7_linear)"/>
<path opacity="0.15" d="M22.6952 229.378L112.807 281.376V287.984L22.6952 235.987V229.378Z" fill="white"/>
<path opacity="0.15" d="M22.6952 242.679L94.851 284.327V290.935L22.6952 249.246V242.679Z" fill="white"/>
<path opacity="0.2" d="M18.4141 69.7709L288.126 225.471V253.985L18.4141 98.3257V69.7709Z" fill="url(#paint8_linear)"/>
<path opacity="0.2" d="M47.8003 100.986C47.8003 105.267 45.3065 107.262 42.2307 105.475C39.1549 103.688 36.6611 98.8245 36.6611 94.5434C36.6611 90.2623 39.1549 88.2672 42.2307 90.0544C45.3065 91.8417 47.8003 96.7463 47.8003 100.986Z" fill="white"/>
<defs>
<linearGradient id="paint0_linear" x1="188.438" y1="8.74001" x2="120.363" y2="126.753" gradientUnits="userSpaceOnUse">
<stop stop-color="white"/>
<stop offset="0.903" stop-color="white" stop-opacity="0"/>
</linearGradient>
<linearGradient id="paint1_linear" x1="149.137" y1="0.739419" x2="81.0541" y2="118.738" gradientUnits="userSpaceOnUse">
<stop stop-color="white"/>
<stop offset="0.903" stop-color="white" stop-opacity="0"/>
</linearGradient>
<linearGradient id="paint2_linear" x1="265.918" y1="56.9688" x2="182.018" y2="202.326" gradientUnits="userSpaceOnUse">
<stop stop-color="white"/>
<stop offset="1" stop-color="white" stop-opacity="0"/>
</linearGradient>
<linearGradient id="paint3_linear" x1="233.711" y1="148.772" x2="210.393" y2="189.171" gradientUnits="userSpaceOnUse">
<stop stop-color="white"/>
<stop offset="1" stop-color="white" stop-opacity="0"/>
</linearGradient>
<linearGradient id="paint4_linear" x1="206.609" y1="5.78309" x2="233.362" y2="81.5239" gradientUnits="userSpaceOnUse">
<stop stop-color="white"/>
<stop offset="1" stop-color="white" stop-opacity="0"/>
</linearGradient>
<linearGradient id="paint5_linear" x1="199.005" y1="173.987" x2="154.565" y2="250.998" gradientUnits="userSpaceOnUse">
<stop stop-color="white"/>
<stop offset="1" stop-color="white" stop-opacity="0"/>
</linearGradient>
<linearGradient id="paint6_linear" x1="221.994" y1="331.66" x2="198.676" y2="372.059" gradientUnits="userSpaceOnUse">
<stop stop-color="white"/>
<stop offset="1" stop-color="white" stop-opacity="0"/>
</linearGradient>
<linearGradient id="paint7_linear" x1="80.6351" y1="247.827" x2="57.3166" y2="288.226" gradientUnits="userSpaceOnUse">
<stop stop-color="white"/>
<stop offset="1" stop-color="white" stop-opacity="0"/>
</linearGradient>
<linearGradient id="paint8_linear" x1="85.3356" y1="46.7968" x2="187.747" y2="220.277" gradientUnits="userSpaceOnUse">
<stop stop-color="white"/>
<stop offset="1" stop-color="white" stop-opacity="0"/>
</linearGradient>
</defs>
</svg>
