<svg width="80" height="81" viewBox="0 0 80 81" fill="none" xmlns="http://www.w3.org/2000/svg">
<g clip-path="url(#clip0)">
<path fill-rule="evenodd" clip-rule="evenodd" d="M5 20.9606V70.9606C5 72.2867 5.52678 73.5584 6.46447 74.4961C7.40215 75.4338 8.67392 75.9606 10 75.9606H70C71.3261 75.9606 72.5979 75.4338 73.5355 74.4961C74.4732 73.5584 75 72.2867 75 70.9606V20.9606H5ZM10 5.96057C7.34784 5.96057 4.8043 7.01414 2.92893 8.8895C1.05357 10.7649 0 13.3084 0 15.9606L0 70.9606C0 73.6127 1.05357 76.1563 2.92893 78.0316C4.8043 79.907 7.34784 80.9606 10 80.9606H70C72.6522 80.9606 75.1957 79.907 77.0711 78.0316C78.9464 76.1563 80 73.6127 80 70.9606V15.9606C80 13.3084 78.9464 10.7649 77.0711 8.8895C75.1957 7.01414 72.6522 5.96057 70 5.96057H10Z" fill="#DD0000"/>
<path fill-rule="evenodd" clip-rule="evenodd" d="M17.5 0.960571C18.163 0.960571 18.7989 1.22396 19.2678 1.6928C19.7366 2.16165 20 2.79753 20 3.46057V5.96057C20 6.62361 19.7366 7.2595 19.2678 7.72834C18.7989 8.19718 18.163 8.46057 17.5 8.46057C16.837 8.46057 16.2011 8.19718 15.7322 7.72834C15.2634 7.2595 15 6.62361 15 5.96057V3.46057C15 2.79753 15.2634 2.16165 15.7322 1.6928C16.2011 1.22396 16.837 0.960571 17.5 0.960571V0.960571ZM62.5 0.960571C63.163 0.960571 63.7989 1.22396 64.2678 1.6928C64.7366 2.16165 65 2.79753 65 3.46057V5.96057C65 6.62361 64.7366 7.2595 64.2678 7.72834C63.7989 8.19718 63.163 8.46057 62.5 8.46057C61.837 8.46057 61.2011 8.19718 60.7322 7.72834C60.2634 7.2595 60 6.62361 60 5.96057V3.46057C60 2.79753 60.2634 2.16165 60.7322 1.6928C61.2011 1.22396 61.837 0.960571 62.5 0.960571V0.960571Z" fill="#DD0000"/>
</g>
<defs>
<clipPath id="clip0">
<rect width="80" height="80" fill="white" transform="translate(0 0.960571)"/>
</clipPath>
</defs>
</svg>
