<svg width="30" height="30" viewBox="0 0 30 30" fill="none" xmlns="http://www.w3.org/2000/svg">
<path d="M21.4649 9.51956L17.5112 13.4732L19.0382 15.0002L22.9919 11.0465L21.4649 9.51956Z" fill="#DD0000"/>
<path d="M13.4724 17.5122L9.51874 21.4659L11.0457 22.9929L14.9994 19.0392L13.4724 17.5122Z" fill="#88847F"/>
<path d="M16.527 12.4883L20.481 8.5343L18.954 7.00734L15 10.9613L16.527 12.4883Z" fill="#DD0000"/>
<path d="M12.4889 16.527L10.9618 14.9999L7.00796 18.9537L8.53508 20.4809L12.4889 16.527Z" fill="#88847F"/>
<path d="M12.4876 13.4729L8.53375 9.51909L7.00695 11.0459L10.9608 14.9997L12.4876 13.4729Z" fill="#88847F"/>
<path d="M13.473 12.4889L15.0003 10.9617L11.0466 7.008L9.51936 8.53528L13.473 12.4889Z" fill="#DD0000"/>
<path d="M17.5116 16.5275L21.4653 20.4812L22.9921 18.9544L19.0384 15.0007L17.5116 16.5275Z" fill="#DD0000"/>
<path d="M20.481 21.4652L16.5272 17.5113L15.0002 19.0383L18.954 22.9921L20.481 21.4652Z" fill="#88847F"/>
<path d="M20.4808 24.5193L18.9538 22.9923L15.0001 26.946L11.0464 22.9923L9.51923 24.5193L15.0001 30L20.4808 24.5193Z" fill="#88847F"/>
<path d="M7.00789 11.0462L5.4809 9.51944L0 15.0001L5.4809 20.4808L7.00789 18.954L3.0542 15.0001L7.00789 11.0462Z" fill="#88847F"/>
<path d="M24.5193 9.51944L22.9921 11.0462L26.946 15.0001L22.9921 18.954L24.5193 20.4808L30 15.0001L24.5193 9.51944Z" fill="#DD0000"/>
<path d="M18.9538 7.00811L20.4808 5.48068L15.0001 0L9.51923 5.48068L11.0464 7.00811L15.0001 3.0542L18.9538 7.00811Z" fill="#DD0000"/>
</svg>
