<svg width="80" height="81" viewBox="0 0 80 81" fill="none" xmlns="http://www.w3.org/2000/svg">
<path d="M71.1111 29.8495H53.3334C52.1546 29.8495 51.0242 30.3177 50.1907 31.1512C49.3572 31.9847 48.8889 33.1152 48.8889 34.2939V67.6273C48.8889 68.806 49.3572 69.9365 50.1907 70.77C51.0242 71.6035 52.1546 72.0717 53.3334 72.0717H71.1111C72.2899 72.0717 73.4203 71.6035 74.2538 70.77C75.0873 69.9365 75.5556 68.806 75.5556 67.6273V34.2939C75.5556 33.1152 75.0873 31.9847 74.2538 31.1512C73.4203 30.3177 72.2899 29.8495 71.1111 29.8495ZM71.1111 34.2939V63.1828H53.3334V34.2939H71.1111Z" fill="#DD0000"/>
<path d="M62.2222 9.84949H8.8889C7.71016 9.84949 6.5797 10.3177 5.74621 11.1512C4.91271 11.9847 4.44446 13.1152 4.44446 14.2939V49.8495C4.44446 51.0282 4.91271 52.1587 5.74621 52.9922C6.5797 53.8257 7.71016 54.2939 8.8889 54.2939H26.6667V58.7384H20.7111C20.0303 58.661 19.3459 58.8486 18.7997 59.2624C18.2535 59.6762 17.8876 60.2843 17.7778 60.9606C17.8876 61.6369 18.2535 62.245 18.7997 62.6588C19.3459 63.0725 20.0303 63.2602 20.7111 63.1828H44.2667V62.3606H44.4445V49.8495H8.8889V14.2939H62.2222V25.405H66.6667V14.2939C66.6667 13.1152 66.1984 11.9847 65.3649 11.1512C64.5314 10.3177 63.401 9.84949 62.2222 9.84949Z" fill="#DD0000"/>
</svg>
